<svg class="svg-icon" style="width: 1em;height: 1em;vertical-align: middle;fill: currentColor;overflow: hidden;" viewBox="0 0 1024 1024" version="1.1" xmlns="http://www.w3.org/2000/svg"><path d="M769.3 920h-529c-82.4 0-149.5-67-149.5-149.5v-529C90.8 159.1 157.9 92 240.3 92h529c82.4 0 149.5 67.1 149.5 149.5v529c0 82.5-67.1 149.5-149.5 149.5z m-529-788c-60.4 0-109.5 49.1-109.5 109.5v529c0 60.4 49.1 109.5 109.5 109.5h529c60.4 0 109.5-49.1 109.5-109.5v-529c0-60.4-49.1-109.5-109.5-109.5h-529z"  /><path d="M424.8 829.5l-36.2-17c7.8-16.5 20.2-29 34.1-38.4-43.3-13.2-83.1-37-116-69.9-52.9-52.9-82.1-123.3-82.1-198.2 0-58.7 17.9-114.8 51.9-162.5 33.2-46.6 79-81.5 132.5-101l13.7 37.6C328.1 314.6 264.6 405.4 264.6 506c0 132.5 107.8 240.2 240.2 240.2l1.8 39.9c-17.9 1.8-67.4 12.8-81.8 43.4zM610.8 765.5l-15.1-37C686.4 691.4 745 604.1 745 506c0-132.5-107.8-240.2-240.2-240.2l-1.2-40c23.8-1.5 91.5-11 117.4-36.2l27.9 28.7c-10.5 10.2-24.8 18.9-43 26.1 36 13.9 69 35.3 97.1 63.4 52.9 53 82 123.4 82 198.2 0 56.7-16.9 111.4-48.8 158.1-31.1 45.5-74.5 80.6-125.4 101.4z"  /><path d="M594 517l-113.7-65.7c-12-6.9-27.1 1.7-27.1 15.6v131.3c0 13.9 15 22.6 27.1 15.6L594 548.3c12.1-7 12.1-24.4 0-31.3z"  /></svg>