<?xml version="1.0" standalone="no"?>
<!DOCTYPE svg PUBLIC "-//W3C//DTD SVG 20010904//EN"
 "http://www.w3.org/TR/2001/REC-SVG-20010904/DTD/svg10.dtd">
<svg version="1.0" xmlns="http://www.w3.org/2000/svg"
 width="100.000000pt" height="100.000000pt" viewBox="0 0 100.000000 100.000000"
 preserveAspectRatio="xMidYMid meet">
<metadata>
Created by potrace 1.14, written by Peter Selinger 2001-2017
</metadata>
<g transform="translate(0.000000,100.000000) scale(0.100000,-0.100000)"
fill="#000000" stroke="none">
<path d="M399 892 c-145 -38 -255 -149 -291 -292 -8 -30 -13 -71 -12 -90 1
-19 2 -51 3 -71 0 -19 7 -42 13 -51 12 -15 17 -15 49 -2 l36 15 -10 45 c-34
146 70 315 221 360 179 54 370 -62 405 -245 l12 -62 40 3 40 3 -3 40 c-21 238
-267 408 -503 347z"/>
<path d="M404 772 c-75 -26 -129 -74 -170 -152 -28 -54 -26 -181 4 -241 29
-59 82 -112 141 -141 64 -32 176 -31 243 1 58 28 111 81 141 141 31 63 31 177
0 240 -23 47 -67 100 -83 100 -5 0 -18 -14 -30 -31 l-22 -30 20 -22 c101 -111
50 -291 -95 -333 -121 -35 -254 66 -254 193 -1 60 11 91 52 137 37 42 82 64
139 68 33 1 40 6 41 22 0 12 2 31 5 44 4 20 0 22 -39 22 -23 -1 -65 -9 -93
-18z"/>
<path d="M437 666 c-176 -65 -135 -332 51 -341 62 -3 95 10 136 51 105 105 43
282 -106 299 -25 3 -59 -1 -81 -9z"/>
<path d="M780 341 c0 -21 -99 -110 -146 -130 -94 -43 -219 -37 -296 14 l-36
24 -27 -34 -26 -35 46 -29 c125 -79 309 -71 438 18 51 36 130 128 121 142 -4
7 -62 39 -71 39 -1 0 -3 -4 -3 -9z"/>
</g>
</svg>
