<?xml version="1.0" encoding="UTF-8" standalone="no"?>
<svg
   viewBox="0 0 100 100"
   version="1.1"
   id="svg3"
   sodipodi:docname="transfigurr.svg"
   inkscape:version="1.3 (0e150ed, 2023-07-21)"
   xmlns:inkscape="http://www.inkscape.org/namespaces/inkscape"
   xmlns:sodipodi="http://sodipodi.sourceforge.net/DTD/sodipodi-0.dtd"
   xmlns="http://www.w3.org/2000/svg"
   xmlns:svg="http://www.w3.org/2000/svg">
  <defs
     id="defs3" />
  <sodipodi:namedview
     id="namedview3"
     pagecolor="#505050"
     bordercolor="#ffffff"
     borderopacity="1"
     inkscape:showpageshadow="0"
     inkscape:pageopacity="0"
     inkscape:pagecheckerboard="1"
     inkscape:deskcolor="#505050"
     inkscape:zoom="7.6"
     inkscape:cx="50"
     inkscape:cy="49.934211"
     inkscape:window-width="1392"
     inkscape:window-height="1212"
     inkscape:window-x="2938"
     inkscape:window-y="93"
     inkscape:window-maximized="0"
     inkscape:current-layer="svg3" />
  <g
     id="g3"
     style="fill:#9c27b0;fill-opacity:1">
    <circle
       cx="50"
       cy="50"
       r="17.8"
       id="circle1"
       style="fill:#9c27b0;fill-opacity:1" />
    <path
       d="M50,78.9c16,0,28.9-13,28.9-28.9c0-8.9-4-17.1-10.9-22.6l-5.3,6.7c4.9,3.9,7.7,9.7,7.7,15.9c0,11.2-9.1,20.4-20.4,20.4   c-11.2,0-20.4-9.1-20.4-20.4S38.8,29.6,50,29.6c0.9,0,1.8,0.1,2.7,0.2l1.1-8.5c-1.3-0.2-2.6-0.3-3.9-0.3c-16,0-28.9,13-28.9,28.9   C21.1,66,34,78.9,50,78.9z"
       id="path1"
       style="fill:#9c27b0;fill-opacity:1" />
    <path
       d="M50,82.1c-7.3,0-14.1-2.4-19.8-6.9l-5.3,6.7c7.2,5.7,15.9,8.7,25.1,8.7c15.2,0,29-8.4,36-21.8l-7.5-3.9   C72.9,75.5,62,82.1,50,82.1z"
       id="path2"
       style="fill:#9c27b0;fill-opacity:1" />
    <path
       d="M46.4,18.1c1.2-0.1,2.4-0.2,3.6-0.2c17.7,0,32.1,14.4,32.1,32.1h8.5C90.6,27.6,72.4,9.4,50,9.4c-1.5,0-3,0.1-4.5,0.2   C24.9,11.9,9.4,29.3,9.4,50c0,4.4,0.7,8.7,2.1,12.8l8.1-2.7c-1.1-3.3-1.6-6.7-1.6-10.2C17.9,33.6,30.2,19.9,46.4,18.1z"
       id="path3"
       style="fill:#9c27b0;fill-opacity:1" />
  </g>
</svg>
